<?xml version="1.0" encoding="UTF-8"?>
<svg id="Layer_1" xmlns="http://www.w3.org/2000/svg" version="1.1" viewBox="0 0 1280 1024">
  <!-- Generator: Adobe Illustrator 29.1.0, SVG Export Plug-In . SVG Version: 2.1.0 Build 142)  -->
  <defs>
    <style>
      .st0 {
        fill: #666;
      }
    </style>
  </defs>
  <g>
    <g>
      <path class="st0" d="M744.88,501.71c-.78.44-2.1.96-2.97.6-1.52-.64-3.34-4.41-2.77-5.97.24-.65,1.06-1.1,1.74-.98,1.02.18,1.74,1.11,2.65,1.38,1.23.37,2.86-.53,3.9.64,1.34,1.52-1.37,3.67-2.56,4.33Z"/>
      <path class="st0" d="M738.36,508.28c-.43-.02-.85-.19-1.09-.56-1.04-1.62,1.31-5.07,3.06-4.34,1.88.78,0,5-1.98,4.9Z"/>
      <path class="st0" d="M743.63,509.66c-2.25-.07-2.37-4.66-.57-5.32,1.42-.53,2.24,1.48,2.22,2.62-.02.9-.49,2.74-1.65,2.7Z"/>
      <path class="st0" d="M747.83,505.9c-2.02-.11-2.79-4.3-.88-4.66,2.29-.43,3.14,4.78.88,4.66Z"/>
      <path class="st0" d="M735.91,503.54c-.46-.12-.82-.5-.89-.97-.34-2.04,3.5-3.85,4.19-2.07.6,1.55-1.8,3.45-3.3,3.04Z"/>
    </g>
    <g>
      <path class="st0" d="M756.88,518.94c-.49.75-1.41,1.82-2.35,1.9-1.64.14-5.01-2.35-5.22-4.01-.09-.69.43-1.47,1.09-1.68.99-.31,2.06.17,2.99,0,1.26-.24,2.29-1.8,3.75-1.24,1.89.72.49,3.88-.26,5.03Z"/>
      <path class="st0" d="M754.15,527.78c-.4.18-.84.22-1.22,0-1.67-.95-1.19-5.09.7-5.26,2.03-.18,2.33,4.43.52,5.26Z"/>
      <path class="st0" d="M759.47,526.56c-2.02.98-4.26-3.03-2.98-4.45,1.01-1.12,2.67.27,3.18,1.29.41.81.84,2.65-.2,3.16Z"/>
      <path class="st0" d="M761.44,521.28c-1.84.84-4.46-2.51-2.94-3.72,1.83-1.44,5,2.77,2.94,3.72Z"/>
      <path class="st0" d="M749.78,524.72c-.46.1-.96-.07-1.25-.45-1.25-1.65,1.32-5.04,2.75-3.77,1.25,1.1,0,3.89-1.51,4.22Z"/>
    </g>
  </g>
  <g>
    <g>
      <path class="st0" d="M740.2,533.94c-.87.19-2.29.3-3.01-.3-1.26-1.06-1.89-5.2-.88-6.52.42-.55,1.34-.74,1.96-.43.92.47,1.34,1.57,2.13,2.1,1.07.72,2.89.33,3.54,1.76.83,1.84-2.39,3.1-3.73,3.39Z"/>
      <path class="st0" d="M732.03,538.3c-.41-.15-.75-.43-.87-.86-.52-1.85,2.74-4.46,4.21-3.24,1.57,1.3-1.47,4.78-3.33,4.1Z"/>
      <path class="st0" d="M736.67,541.17c-2.13-.73-.89-5.15,1.02-5.26,1.51-.08,1.7,2.07,1.35,3.16-.28.86-1.27,2.47-2.37,2.1Z"/>
      <path class="st0" d="M741.78,538.81c-1.9-.7-1.4-4.93.54-4.71,2.31.26,1.6,5.49-.54,4.71Z"/>
      <path class="st0" d="M731.09,533.05c-.4-.25-.63-.72-.57-1.2.28-2.05,4.48-2.65,4.61-.74.11,1.66-2.73,2.76-4.04,1.94Z"/>
    </g>
    <g>
      <path class="st0" d="M752.55,551.59c-.69.57-1.88,1.33-2.81,1.13-1.61-.35-4.09-3.73-3.81-5.37.12-.69.84-1.28,1.54-1.28,1.04,0,1.92.77,2.86.87,1.28.14,2.72-1.05,3.95-.08,1.59,1.25-.68,3.85-1.73,4.73Z"/>
      <path class="st0" d="M747.34,559.24c-.43.06-.87-.03-1.17-.35-1.32-1.4.36-5.22,2.22-4.82,2,.42.92,4.92-1.05,5.18Z"/>
      <path class="st0" d="M752.78,559.64c-2.22.34-3.18-4.15-1.53-5.13,1.3-.78,2.47,1.05,2.66,2.17.15.89.02,2.78-1.12,2.96Z"/>
      <path class="st0" d="M756.21,555.17c-2.01.26-3.53-3.72-1.71-4.42,2.17-.84,3.96,4.12,1.71,4.42Z"/>
      <path class="st0" d="M744.06,555.03c-.47-.04-.89-.34-1.06-.8-.71-1.95,2.74-4.43,3.74-2.8.87,1.42-1.14,3.72-2.68,3.59Z"/>
    </g>
  </g>
  <g>
    <g>
      <path class="st0" d="M729.18,562.14c-.89-.08-2.27-.39-2.79-1.18-.89-1.38-.27-5.53,1.09-6.49.57-.4,1.5-.31,1.99.17.74.72.81,1.9,1.41,2.64.81,1,2.67,1.18,2.86,2.73.25,2.01-3.2,2.25-4.56,2.13Z"/>
      <path class="st0" d="M720.09,563.89c-.35-.26-.59-.63-.58-1.08.05-1.92,3.94-3.44,4.98-1.85,1.12,1.71-2.82,4.13-4.4,2.93Z"/>
      <path class="st0" d="M723.67,568.01c-1.82-1.33.67-5.18,2.53-4.72,1.47.37,1.01,2.48.35,3.42-.52.74-1.95,1.98-2.88,1.3Z"/>
      <path class="st0" d="M729.25,567.27c-1.61-1.23.12-5.12,1.9-4.34,2.13.94-.1,5.72-1.9,4.34Z"/>
      <path class="st0" d="M720.74,558.59c-.31-.36-.39-.87-.19-1.31.87-1.88,5.07-1.2,4.63.66-.38,1.62-3.43,1.83-4.44.65Z"/>
    </g>
    <g>
      <path d="M735.76,582.66c-.83.34-2.19.71-3.02.25-1.43-.81-2.81-4.77-2.05-6.25.31-.62,1.18-.97,1.85-.77.99.3,1.6,1.3,2.47,1.68,1.18.51,2.91-.2,3.8,1.09,1.15,1.66-1.79,3.48-3.05,4.01Z"/>
      <path d="M728.52,588.42c-.43-.07-.82-.29-1.01-.68-.85-1.73,1.89-4.88,3.55-3.95,1.78,1-.58,4.97-2.53,4.64Z"/>
      <path d="M733.6,590.41c-2.22-.33-1.81-4.9.05-5.35,1.47-.36,2.05,1.73,1.9,2.86-.12.9-.81,2.66-1.95,2.49Z"/>
      <path d="M738.2,587.16c-2-.34-2.27-4.59-.33-4.73,2.32-.16,2.57,5.11.33,4.73Z"/>
      <path d="M726.64,583.43c-.44-.18-.75-.59-.78-1.07-.1-2.07,3.93-3.42,4.4-1.56.41,1.61-2.18,3.21-3.63,2.64Z"/>
    </g>
  </g>
  <g>
    <g>
      <path d="M710.33,585.85c-.83-.34-2.06-1.04-2.32-1.95-.45-1.58,1.36-5.36,2.94-5.89.66-.22,1.52.14,1.86.75.5.91.22,2.05.57,2.93.48,1.19,2.2,1.91,1.93,3.45-.35,1.99-3.72,1.22-4.99.7Z"/>
      <path d="M701.13,584.85c-.25-.35-.38-.78-.24-1.2.61-1.82,4.77-2.14,5.3-.31.57,1.96-3.9,3.13-5.06,1.51Z"/>
      <path d="M703.34,589.84c-1.35-1.8,2.16-4.76,3.8-3.77,1.3.78.24,2.67-.66,3.37-.72.55-2.45,1.33-3.14.4Z"/>
      <path d="M708.9,590.77c-1.18-1.65,1.62-4.86,3.09-3.59,1.76,1.52-1.77,5.44-3.09,3.59Z"/>
      <path d="M703.3,579.98c-.19-.44-.12-.95.2-1.31,1.38-1.54,5.19.34,4.23,1.98-.84,1.44-3.81.75-4.43-.68Z"/>
    </g>
    <g>
      <path d="M710.61,607.39c-.89.09-2.31.04-2.95-.65-1.13-1.19-1.28-5.38-.13-6.58.48-.5,1.41-.58,1.99-.2.86.58,1.15,1.72,1.87,2.33.98.83,2.84.67,3.31,2.16.61,1.93-2.73,2.8-4.09,2.94Z"/>
      <path d="M701.99,610.78c-.39-.2-.7-.51-.77-.95-.31-1.9,3.24-4.11,4.55-2.74,1.41,1.47-2.01,4.58-3.78,3.69Z"/>
      <path d="M706.27,614.17c-2.03-.97-.29-5.22,1.62-5.1,1.51.09,1.45,2.26.97,3.29-.38.82-1.55,2.31-2.59,1.81Z"/>
      <path d="M711.62,612.41c-1.81-.91-.82-5.06,1.07-4.62,2.27.53.96,5.64-1.07,4.62Z"/>
      <path d="M701.66,605.45c-.37-.3-.54-.79-.43-1.25.51-2.01,4.76-2.11,4.67-.2-.08,1.66-3.03,2.43-4.24,1.46Z"/>
    </g>
  </g>
  <g>
    <g>
      <path d="M685.37,602.98c-.69-.57-1.66-1.6-1.64-2.54.04-1.65,2.88-4.72,4.55-4.76.7-.01,1.41.58,1.55,1.26.21,1.02-.39,2.03-.32,2.97.11,1.28,1.54,2.47.83,3.86-.92,1.8-3.91.07-4.97-.8Z"/>
      <path d="M676.87,599.31c-.14-.41-.13-.86.13-1.22,1.12-1.56,5.19-.64,5.16,1.26-.04,2.04-4.65,1.84-5.28-.05Z"/>
      <path d="M677.51,604.73c-.76-2.12,3.47-3.91,4.75-2.48,1.01,1.13-.56,2.62-1.63,3.02-.85.32-2.73.55-3.12-.54Z"/>
      <path d="M682.55,607.26c-.64-1.92,2.98-4.17,4.01-2.52,1.24,1.97-3.3,4.67-4.01,2.52Z"/>
      <path d="M680.38,595.3c-.05-.47.17-.94.58-1.19,1.78-1.07,4.86,1.85,3.46,3.14-1.23,1.12-3.86-.41-4.04-1.95Z"/>
    </g>
    <g>
      <path d="M679.27,623.64c-.88-.18-2.21-.64-2.63-1.49-.73-1.48.36-5.52,1.82-6.32.61-.34,1.52-.14,1.96.4.65.8.59,1.98,1.1,2.78.69,1.08,2.51,1.47,2.53,3.04.02,2.02-3.43,1.87-4.78,1.6Z"/>
      <path d="M670.04,624.34c-.31-.3-.51-.7-.45-1.14.27-1.9,4.3-2.97,5.16-1.27.91,1.82-3.27,3.79-4.7,2.41Z"/>
      <path d="M673.13,628.84c-1.65-1.52,1.26-5.07,3.05-4.4,1.42.53.72,2.58-.04,3.43-.6.67-2.16,1.75-3.01.97Z"/>
      <path d="M678.76,628.74c-1.46-1.4.71-5.07,2.39-4.09,2.01,1.17-.75,5.67-2.39,4.09Z"/>
      <path d="M671.29,619.15c-.27-.39-.29-.91-.04-1.32,1.08-1.77,5.17-.62,4.52,1.18-.57,1.57-3.61,1.43-4.48.14Z"/>
    </g>
  </g>
  <g>
    <g>
      <path d="M656.41,611.96c-.49-.75-1.11-2.02-.81-2.91.53-1.56,4.15-3.66,5.75-3.2.67.19,1.18.98,1.11,1.67-.11,1.03-.98,1.82-1.18,2.74-.28,1.25.74,2.82-.35,3.94-1.41,1.45-3.76-1.1-4.51-2.24Z"/>
      <path d="M649.38,605.94c0-.44.13-.86.48-1.12,1.53-1.16,5.15.93,4.55,2.74-.64,1.94-4.99.37-5.03-1.61Z"/>
      <path d="M648.38,611.31c-.09-2.25,4.47-2.7,5.27-.96.63,1.38-1.31,2.34-2.45,2.4-.9.05-2.77-.29-2.82-1.44Z"/>
      <path d="M652.45,615.21c-.04-2.02,4.08-3.1,4.58-1.22.6,2.25-4.53,3.49-4.58,1.22Z"/>
      <path d="M653.92,603.15c.09-.47.44-.85.91-.96,2.01-.49,4.1,3.21,2.37,4.03-1.51.71-3.57-1.54-3.27-3.06Z"/>
    </g>
    <g>
      <path d="M644.46,629.89c-.78-.43-1.92-1.27-2.07-2.2-.26-1.63,1.98-5.17,3.61-5.5.68-.14,1.5.32,1.76.96.39.96-.02,2.07.23,2.98.33,1.24,1.96,2.15,1.51,3.65-.58,1.94-3.84.77-5.03.11Z"/>
      <path d="M635.44,627.82c-.21-.38-.29-.82-.1-1.22.82-1.74,4.99-1.56,5.3.31.33,2.01-4.24,2.65-5.2.91Z"/>
      <path d="M637.05,633.04c-1.13-1.95,2.71-4.47,4.22-3.3,1.2.93-.08,2.68-1.06,3.27-.78.46-2.58,1.03-3.16.03Z"/>
      <path d="M642.46,634.61c-.98-1.77,2.18-4.64,3.49-3.2,1.57,1.72-2.4,5.19-3.49,3.2Z"/>
      <path d="M638.17,623.24c-.14-.45,0-.96.36-1.27,1.56-1.37,5.12.94,3.97,2.47-1,1.33-3.88.29-4.32-1.19Z"/>
    </g>
  </g>
  <g>
    <g>
      <path d="M626.11,612.02c-.25-.86-.47-2.26.08-3.02.96-1.34,5.04-2.28,6.44-1.37.58.38.84,1.28.57,1.92-.4.95-1.47,1.45-1.94,2.28-.63,1.12-.12,2.91-1.49,3.66-1.78.97-3.27-2.15-3.66-3.46Z"/>
      <path d="M621.15,604.21c.12-.42.37-.78.79-.93,1.81-.66,4.65,2.4,3.55,3.95-1.18,1.66-4.88-1.1-4.34-3.01Z"/>
      <path d="M618.63,609.05c.57-2.18,5.07-1.28,5.32.62.2,1.5-1.94,1.85-3.05,1.58-.88-.22-2.56-1.08-2.27-2.2Z"/>
      <path d="M621.37,613.97c.55-1.95,4.81-1.77,4.73.18-.09,2.33-5.36,2.01-4.73-.18Z"/>
      <path d="M626.31,602.87c.22-.42.67-.68,1.15-.66,2.07.12,2.98,4.27,1.09,4.54-1.65.24-2.96-2.52-2.23-3.89Z"/>
    </g>
    <g>
      <path d="M609.44,625.67c-.62-.64-1.47-1.78-1.34-2.71.23-1.63,3.41-4.36,5.06-4.2.69.07,1.34.74,1.4,1.43.09,1.03-.63,1.97-.66,2.92-.04,1.28,1.25,2.63.38,3.93-1.12,1.68-3.89-.38-4.85-1.37Z"/>
      <path d="M601.42,621.05c-.09-.43-.03-.87.27-1.19,1.29-1.42,5.23-.03,4.98,1.85-.27,2.02-4.83,1.29-5.24-.66Z"/>
      <path d="M601.44,626.5c-.51-2.19,3.9-3.48,5-1.92.87,1.24-.86,2.54-1.97,2.81-.88.22-2.77.23-3.03-.9Z"/>
      <path d="M606.15,629.59c-.41-1.98,3.44-3.8,4.28-2.04,1,2.1-3.81,4.26-4.28,2.04Z"/>
      <path d="M605.37,617.47c0-.47.28-.92.71-1.11,1.89-.85,4.62,2.4,3.07,3.52-1.35.98-3.79-.85-3.78-2.41Z"/>
    </g>
  </g>
  <g>
    <g>
      <path d="M597.15,603.16c.01-.89.22-2.3.97-2.87,1.31-.99,5.49-.68,6.55.6.44.54.43,1.47-.02,2-.67.79-1.83.95-2.52,1.6-.94.88-.97,2.75-2.51,3.05-1.98.4-2.49-3.02-2.47-4.39Z"/>
      <path d="M594.74,594.23c.24-.37.59-.64,1.03-.66,1.92-.09,3.73,3.67,2.22,4.82-1.62,1.24-4.33-2.5-3.25-4.17Z"/>
      <path d="M590.89,598.1c1.19-1.91,5.22.28,4.89,2.17-.26,1.49-2.4,1.19-3.38.61-.77-.47-2.12-1.8-1.51-2.78Z"/>
      <path d="M592.05,603.62c1.11-1.7,5.12-.26,4.47,1.57-.78,2.2-5.71.33-4.47-1.57Z"/>
      <path d="M600.06,594.48c.34-.33.84-.45,1.29-.29,1.94.73,1.58,4.96-.31,4.66-1.64-.26-2.08-3.28-.98-4.38Z"/>
    </g>
    <g>
      <path d="M577.19,611.25c-.4-.8-.87-2.13-.47-2.99.7-1.49,4.55-3.15,6.08-2.51.64.27,1.06,1.1.91,1.78-.22,1.01-1.18,1.7-1.49,2.59-.42,1.21.41,2.88-.8,3.87-1.57,1.27-3.61-1.52-4.22-2.74Z"/>
      <path d="M570.9,604.46c.04-.43.23-.84.61-1.06,1.66-.98,5.01,1.52,4.21,3.24-.86,1.85-5-.2-4.81-2.18Z"/>
      <path d="M569.3,609.68c.17-2.24,4.75-2.17,5.34-.35.47,1.44-1.57,2.17-2.71,2.11-.9-.05-2.72-.6-2.63-1.76Z"/>
      <path d="M572.88,614.02c.19-2.02,4.41-2.61,4.69-.68.33,2.31-4.9,2.94-4.69.68Z"/>
      <path d="M575.74,602.21c.14-.45.54-.79,1.01-.85,2.06-.26,3.7,3.66,1.89,4.27-1.58.53-3.37-1.94-2.9-3.42Z"/>
    </g>
  </g>
  <g>
    <g>
      <path d="M572.12,586.13c.27-.85.88-2.13,1.77-2.45,1.55-.56,5.45.96,6.09,2.49.27.64-.02,1.53-.61,1.91-.87.56-2.03.37-2.88.79-1.15.57-1.74,2.34-3.3,2.18-2.01-.2-1.49-3.62-1.07-4.92Z"/>
      <path d="M572.43,576.88c.33-.28.75-.44,1.18-.33,1.86.47,2.49,4.6.71,5.26-1.91.71-3.41-3.66-1.88-4.94Z"/>
      <path d="M567.62,579.46c1.7-1.48,4.91,1.8,4.04,3.51-.68,1.35-2.65.44-3.41-.41-.6-.67-1.5-2.34-.63-3.1Z"/>
      <path d="M567.1,585.07c1.55-1.3,4.97,1.25,3.81,2.82-1.39,1.87-5.55-1.36-3.81-2.82Z"/>
      <path d="M577.44,578.69c.42-.22.94-.19,1.32.11,1.64,1.27.05,5.21-1.67,4.36-1.49-.73-1.03-3.75.35-4.47Z"/>
    </g>
    <g>
      <path d="M550.65,588c-.15-.88-.21-2.3.43-2.99,1.11-1.22,5.27-1.68,6.55-.62.53.44.69,1.37.35,1.97-.51.9-1.63,1.27-2.19,2.04-.76,1.04-.45,2.88-1.91,3.46-1.88.76-3-2.51-3.23-3.86Z"/>
      <path d="M546.64,579.67c.17-.4.46-.73.89-.84,1.87-.45,4.34,2.92,3.07,4.33-1.36,1.52-4.72-1.66-3.96-3.5Z"/>
      <path d="M543.57,584.18c.82-2.09,5.18-.68,5.21,1.23.02,1.51-2.14,1.62-3.21,1.22-.85-.32-2.42-1.37-2-2.45Z"/>
      <path d="M545.72,589.39c.78-1.87,4.98-1.2,4.68.73-.36,2.3-5.55,1.37-4.68-.73Z"/>
      <path d="M551.92,578.94c.27-.39.75-.6,1.22-.52,2.04.36,2.46,4.59.55,4.64-1.66.05-2.65-2.84-1.77-4.12Z"/>
    </g>
  </g>
  <g>
    <g>
      <path d="M553.17,562.51c.51-.73,1.47-1.78,2.41-1.83,1.64-.08,4.93,2.52,5.09,4.18.07.69-.47,1.45-1.14,1.64-1,.28-2.05-.24-2.99-.09-1.27.2-2.35,1.72-3.79,1.12-1.86-.78-.36-3.9.42-5.02Z"/>
      <path d="M556.19,553.76c.4-.17.84-.2,1.22.03,1.64,1,1.02,5.13-.87,5.24-2.04.12-2.18-4.5-.35-5.27Z"/>
      <path d="M550.83,554.81c2.05-.91,4.16,3.17,2.83,4.55-1.05,1.09-2.66-.36-3.14-1.4-.38-.82-.75-2.68.31-3.15Z"/>
      <path d="M548.69,560.02c1.87-.78,4.38,2.66,2.81,3.81-1.87,1.38-4.91-2.94-2.81-3.81Z"/>
      <path d="M560.45,556.96c.47-.09.95.1,1.23.49,1.2,1.69-1.48,4.99-2.88,3.68-1.21-1.14.12-3.88,1.65-4.17Z"/>
    </g>
    <g>
      <path d="M532.11,557.98c.11-.89.48-2.26,1.29-2.74,1.42-.84,5.53-.06,6.44,1.34.38.58.26,1.51-.25,1.99-.75.71-1.93.74-2.69,1.3-1.03.77-1.28,2.62-2.84,2.75-2.01.17-2.13-3.28-1.95-4.64Z"/>
      <path d="M530.72,548.83c.28-.34.66-.57,1.1-.54,1.92.12,3.29,4.07,1.66,5.04-1.75,1.05-4.02-2.98-2.76-4.51Z"/>
      <path d="M526.46,552.25c1.4-1.76,5.15.87,4.62,2.71-.42,1.45-2.52.91-3.43.22-.72-.55-1.91-2.03-1.19-2.93Z"/>
      <path d="M526.99,557.86c1.29-1.56,5.11.32,4.26,2.07-1.02,2.09-5.71-.32-4.26-2.07Z"/>
      <path d="M535.98,549.69c.37-.29.89-.36,1.32-.14,1.85.94,1,5.11-.84,4.6-1.6-.45-1.7-3.5-.48-4.46Z"/>
    </g>
  </g>
  <g>
    <g>
      <path d="M542.04,534.34c.71-.55,1.93-1.26,2.85-1.03,1.59.41,3.96,3.87,3.62,5.5-.14.68-.88,1.25-1.58,1.23-1.04-.03-1.89-.84-2.83-.97-1.27-.18-2.75.95-3.95-.06-1.55-1.3.81-3.83,1.89-4.67Z"/>
      <path d="M547.52,526.88c.43-.04.86.06,1.16.4,1.27,1.44-.54,5.2-2.39,4.74-1.98-.49-.75-4.95,1.23-5.14Z"/>
      <path d="M542.09,526.29c2.23-.26,3.03,4.26,1.35,5.18-1.33.73-2.43-1.13-2.58-2.26-.12-.9.08-2.78,1.23-2.92Z"/>
      <path d="M538.5,530.63c2.02-.19,3.39,3.84,1.55,4.48-2.2.76-3.82-4.26-1.55-4.48Z"/>
      <path d="M550.64,531.2c.47.05.88.38,1.03.83.64,1.97-2.9,4.33-3.84,2.66-.82-1.45,1.27-3.67,2.81-3.49Z"/>
    </g>
    <g>
      <path d="M523.27,523.77c.37-.81,1.12-2.01,2.04-2.23,1.6-.38,5.3,1.59,5.76,3.19.19.67-.2,1.52-.83,1.82-.93.46-2.06.13-2.96.45-1.21.43-2,2.12-3.53,1.78-1.97-.44-1.06-3.77-.49-5.01Z"/>
      <path d="M524.66,514.62c.36-.24.8-.35,1.21-.19,1.8.69,1.93,4.86.09,5.31-1.98.48-2.96-4.03-1.3-5.12Z"/>
      <path d="M519.58,516.62c1.86-1.27,4.66,2.36,3.6,3.96-.84,1.26-2.68.12-3.34-.81-.52-.74-1.22-2.5-.27-3.15Z"/>
      <path d="M518.41,522.13c1.7-1.11,4.79,1.82,3.45,3.24-1.59,1.7-5.36-2-3.45-3.24Z"/>
      <path d="M529.43,517c.44-.17.95-.08,1.3.26,1.48,1.45-.56,5.18-2.16,4.14-1.4-.9-.58-3.84.87-4.4Z"/>
    </g>
  </g>
  <g>
    <g>
      <path class="st0" d="M539.73,504.1c.84-.32,2.21-.64,3.02-.15,1.41.86,2.65,4.86,1.85,6.31-.33.61-1.21.94-1.87.71-.98-.33-1.56-1.35-2.42-1.76-1.16-.55-2.91.1-3.76-1.21-1.1-1.7,1.9-3.42,3.18-3.91Z"/>
      <path class="st0" d="M547.15,498.57c.43.09.81.31.99.72.79,1.75-2.04,4.82-3.67,3.84-1.75-1.05.73-4.95,2.68-4.55Z"/>
      <path class="st0" d="M542.14,496.42c2.21.4,1.65,4.96-.22,5.35-1.48.31-1.99-1.8-1.81-2.92.15-.89.89-2.64,2.03-2.43Z"/>
      <path class="st0" d="M537.43,499.53c1.98.41,2.12,4.66.18,4.73-2.33.09-2.4-5.19-.18-4.73Z"/>
      <path class="st0" d="M548.87,503.62c.43.19.73.62.74,1.1.03,2.07-4.04,3.29-4.45,1.42-.36-1.62,2.29-3.14,3.71-2.52Z"/>
    </g>
    <g>
      <path class="st0" d="M524.87,488.51c.59-.67,1.66-1.6,2.61-1.54,1.64.11,4.6,3.07,4.57,4.73-.01.7-.64,1.39-1.33,1.5-1.02.16-2.01-.48-2.96-.44-1.28.05-2.53,1.44-3.9.67-1.76-.99.09-3.91,1-4.94Z"/>
      <path class="st0" d="M528.88,480.16c.42-.12.86-.1,1.21.17,1.52,1.18.43,5.21-1.47,5.1-2.04-.12-1.65-4.72.26-5.28Z"/>
      <path class="st0" d="M523.44,480.59c2.15-.67,3.77,3.62,2.29,4.84-1.17.96-2.6-.66-2.95-1.75-.28-.86-.44-2.75.67-3.09Z"/>
      <path class="st0" d="M520.71,485.52c1.95-.56,4.04,3.15,2.35,4.11-2.02,1.16-4.54-3.48-2.35-4.11Z"/>
      <path class="st0" d="M532.75,483.83c.47-.03.94.21,1.17.63.99,1.82-2.05,4.79-3.28,3.33-1.07-1.27.57-3.85,2.12-3.95Z"/>
    </g>
  </g>
  <g>
    <g>
      <path class="st0" d="M546.39,474.56c.89-.05,2.31.04,2.93.75,1.09,1.23,1.09,5.42-.1,6.58-.5.48-1.43.53-2,.13-.84-.61-1.09-1.76-1.79-2.4-.95-.87-2.81-.77-3.23-2.27-.55-1.95,2.83-2.71,4.19-2.79Z"/>
      <path class="st0" d="M555.12,471.47c.38.21.68.54.73.98.24,1.91-3.38,3.99-4.64,2.57-1.36-1.52,2.17-4.51,3.91-3.55Z"/>
      <path class="st0" d="M550.97,467.93c1.99,1.04.11,5.22-1.8,5.04-1.51-.14-1.37-2.31-.86-3.32.41-.81,1.63-2.25,2.66-1.72Z"/>
      <path class="st0" d="M545.55,469.5c1.77.98.64,5.08-1.24,4.57-2.25-.61-.76-5.67,1.24-4.57Z"/>
      <path class="st0" d="M555.26,476.81c.36.31.52.81.38,1.27-.58,1.99-4.83,1.94-4.67.04.14-1.66,3.12-2.32,4.29-1.31Z"/>
    </g>
    <g>
      <path class="st0" d="M536.83,455.25c.76-.46,2.06-1.03,2.94-.69,1.54.59,3.49,4.3,2.96,5.88-.22.66-1.02,1.14-1.71,1.04-1.03-.15-1.78-1.05-2.69-1.29-1.24-.33-2.85.63-3.92-.51-1.39-1.47,1.25-3.71,2.42-4.42Z"/>
      <path class="st0" d="M543.13,448.47c.44,0,.85.16,1.1.53,1.1,1.58-1.14,5.11-2.92,4.44-1.91-.72-.17-5,1.81-4.96Z"/>
      <path class="st0" d="M537.81,447.26c2.25,0,2.52,4.58.75,5.3-1.4.57-2.28-1.41-2.3-2.55-.01-.9.4-2.75,1.55-2.75Z"/>
      <path class="st0" d="M533.74,451.17c2.02.04,2.93,4.2,1.03,4.62-2.27.5-3.3-4.67-1.03-4.62Z"/>
      <path class="st0" d="M545.73,453.13c.46.11.83.47.93.94.41,2.03-3.38,3.96-4.12,2.2-.65-1.53,1.68-3.5,3.19-3.15Z"/>
    </g>
  </g>
  <g>
    <g>
      <path class="st0" d="M561.5,448.32c.87.21,2.19.72,2.58,1.58.68,1.5-.55,5.51-2.04,6.26-.62.31-1.53.09-1.95-.47-.62-.83-.52-2-1-2.82-.65-1.11-2.46-1.56-2.42-3.12.05-2.02,3.5-1.76,4.83-1.43Z"/>
      <path class="st0" d="M570.75,447.94c.3.31.49.71.41,1.15-.33,1.89-4.4,2.82-5.2,1.09-.85-1.85,3.4-3.67,4.78-2.25Z"/>
      <path class="st0" d="M567.82,443.34c1.6,1.58-1.43,5.03-3.2,4.29-1.4-.58-.63-2.61.16-3.43.63-.65,2.22-1.67,3.04-.86Z"/>
      <path class="st0" d="M562.19,443.24c1.41,1.45-.88,5.05-2.53,4.01-1.97-1.24.95-5.64,2.53-4.01Z"/>
      <path class="st0" d="M569.32,453.08c.25.4.26.92,0,1.32-1.14,1.73-5.19.44-4.48-1.34.62-1.55,3.66-1.3,4.48.01Z"/>
    </g>
    <g>
      <path class="st0" d="M558.04,427.06c.87-.22,2.27-.38,3.02.2,1.3,1.01,2.07,5.13,1.1,6.49-.4.57-1.31.79-1.94.49-.94-.44-1.39-1.53-2.19-2.03-1.09-.68-2.9-.24-3.6-1.64-.89-1.81,2.28-3.18,3.61-3.51Z"/>
      <path class="st0" d="M566.06,422.43c.41.14.77.41.9.83.58,1.83-2.59,4.54-4.09,3.38-1.61-1.25,1.31-4.83,3.19-4.21Z"/>
      <path class="st0" d="M561.33,419.71c2.15.66,1.06,5.12-.84,5.29-1.51.13-1.77-2.02-1.45-3.11.25-.87,1.19-2.51,2.3-2.18Z"/>
      <path class="st0" d="M556.29,422.24c1.92.63,1.56,4.88-.38,4.72-2.32-.19-1.78-5.43.38-4.72Z"/>
      <path class="st0" d="M567.18,427.64c.41.24.66.7.61,1.18-.21,2.06-4.39,2.8-4.59.89-.17-1.66,2.64-2.85,3.98-2.07Z"/>
    </g>
  </g>
  <g>
    <g>
      <path class="st0" d="M583.66,427.67c.77.46,1.88,1.33,2,2.27.21,1.63-2.14,5.1-3.78,5.38-.69.12-1.49-.36-1.72-1.02-.35-.97.09-2.06-.13-2.99-.3-1.25-1.9-2.21-1.4-3.7.64-1.92,3.86-.65,5.04.05Z"/>
      <path class="st0" d="M592.61,430.02c.2.39.26.83.06,1.22-.88,1.71-5.04,1.41-5.29-.48-.27-2.02,4.33-2.51,5.23-.74Z"/>
      <path class="st0" d="M591.16,424.76c1.06,1.98-2.85,4.38-4.32,3.16-1.17-.97.16-2.68,1.16-3.23.79-.44,2.62-.95,3.16.07Z"/>
      <path class="st0" d="M585.8,423.02c.92,1.8-2.32,4.57-3.59,3.09-1.52-1.77,2.56-5.11,3.59-3.09Z"/>
      <path class="st0" d="M589.73,434.52c.12.46-.03.96-.4,1.26-1.6,1.32-5.09-1.1-3.89-2.59,1.05-1.3,3.88-.17,4.28,1.33Z"/>
    </g>
    <g>
      <path class="st0" d="M586.59,406.33c.89.05,2.29.31,2.83,1.08.94,1.35.47,5.51-.85,6.53-.55.42-1.49.37-2-.1-.77-.7-.88-1.87-1.5-2.58-.84-.97-2.71-1.08-2.95-2.63-.32-2,3.12-2.37,4.48-2.3Z"/>
      <path class="st0" d="M595.61,404.26c.36.25.61.61.62,1.06.02,1.92-3.81,3.58-4.91,2.03-1.18-1.67,2.67-4.23,4.29-3.09Z"/>
      <path class="st0" d="M591.88,400.27c1.86,1.26-.49,5.2-2.36,4.81-1.48-.31-1.1-2.45-.47-3.4.5-.76,1.88-2.05,2.83-1.41Z"/>
      <path class="st0" d="M586.33,401.21c1.65,1.17.06,5.12-1.75,4.4-2.16-.86-.11-5.72,1.75-4.4Z"/>
      <path class="st0" d="M595.15,409.57c.32.35.42.86.24,1.3-.8,1.91-5.02,1.38-4.65-.49.32-1.63,3.36-1.95,4.41-.81Z"/>
    </g>
  </g>
  <g>
    <g>
      <path class="st0" d="M610.9,414.45c.6.66,1.4,1.83,1.24,2.76-.29,1.62-3.56,4.24-5.21,4.02-.69-.09-1.31-.79-1.35-1.48-.05-1.03.69-1.95.76-2.89.09-1.28-1.15-2.68-.24-3.95,1.18-1.64,3.88.52,4.8,1.54Z"/>
      <path class="st0" d="M618.75,419.35c.07.43,0,.87-.31,1.18-1.34,1.38-5.23-.15-4.91-2.03.34-2.01,4.88-1.12,5.22.84Z"/>
      <path class="st0" d="M618.93,413.9c.43,2.21-4.02,3.34-5.06,1.74-.83-1.27.95-2.51,2.06-2.74.89-.19,2.78-.13,3,1Z"/>
      <path class="st0" d="M614.33,410.65c.34,2-3.57,3.67-4.35,1.89-.93-2.14,3.96-4.13,4.35-1.89Z"/>
      <path class="st0" d="M614.67,422.79c-.02.47-.31.91-.75,1.09-1.92.79-4.53-2.56-2.94-3.63,1.38-.93,3.76.99,3.7,2.54Z"/>
    </g>
    <g>
      <path class="st0" d="M620.03,394.94c.84.31,2.09.97,2.38,1.87.5,1.57-1.19,5.4-2.75,5.98-.65.24-1.53-.09-1.88-.69-.52-.89-.29-2.05-.67-2.91-.52-1.17-2.26-1.83-2.04-3.38.29-2,3.68-1.34,4.96-.86Z"/>
      <path class="st0" d="M629.26,395.64c.27.35.4.77.28,1.19-.55,1.84-4.7,2.29-5.29.48-.63-1.94,3.8-3.25,5.01-1.68Z"/>
      <path class="st0" d="M626.88,390.72c1.4,1.76-2.01,4.83-3.68,3.89-1.32-.74-.33-2.66.55-3.39.7-.58,2.4-1.4,3.12-.5Z"/>
      <path class="st0" d="M621.3,389.98c1.23,1.61-1.46,4.91-2.97,3.69-1.81-1.46,1.59-5.49,2.97-3.69Z"/>
      <path class="st0" d="M627.24,400.58c.2.43.15.95-.16,1.31-1.33,1.59-5.2-.17-4.29-1.85.79-1.46,3.79-.87,4.45.53Z"/>
    </g>
  </g>
  <g>
    <g>
      <path class="st0" d="M640.85,409.91c.38.81.81,2.16.38,3-.75,1.47-4.64,3.01-6.16,2.32-.63-.29-1.02-1.14-.85-1.81.26-1,1.23-1.66,1.57-2.54.46-1.2-.32-2.9.93-3.84,1.61-1.22,3.56,1.63,4.13,2.87Z"/>
      <path class="st0" d="M646.92,416.89c-.05.43-.25.83-.64,1.04-1.69.92-4.96-1.68-4.1-3.37.92-1.82,4.99.36,4.74,2.33Z"/>
      <path class="st0" d="M648.69,411.73c-.24,2.24-4.82,2.02-5.35.18-.42-1.45,1.64-2.12,2.78-2.02.9.08,2.7.69,2.57,1.84Z"/>
      <path class="st0" d="M645.24,407.27c-.26,2.01-4.49,2.47-4.71.53-.26-2.31,5-2.78,4.71-.53Z"/>
      <path class="st0" d="M642.02,418.99c-.16.45-.56.78-1.04.82-2.06.19-3.58-3.78-1.75-4.33,1.59-.48,3.31,2.04,2.79,3.51Z"/>
    </g>
    <g>
      <path class="st0" d="M655.29,393.92c.71.54,1.72,1.54,1.73,2.48.02,1.65-2.72,4.82-4.38,4.91-.69.04-1.43-.53-1.6-1.21-.24-1.01.32-2.04.21-2.98-.15-1.27-1.63-2.42-.96-3.83.86-1.83,3.91-.2,5,.63Z"/>
      <path class="st0" d="M663.91,397.29c.15.41.16.85-.08,1.22-1.07,1.6-5.17.82-5.2-1.08-.03-2.04,4.59-2,5.28-.14Z"/>
      <path class="st0" d="M663.08,391.9c.83,2.09-3.33,4.03-4.66,2.64-1.05-1.09.47-2.64,1.52-3.08.84-.35,2.71-.64,3.13.43Z"/>
      <path class="st0" d="M657.96,389.55c.71,1.9-2.83,4.27-3.92,2.66-1.3-1.93,3.13-4.78,3.92-2.66Z"/>
      <path class="st0" d="M660.54,401.42c.07.47-.14.95-.54,1.21-1.74,1.13-4.93-1.68-3.56-3.02,1.19-1.17,3.88.28,4.1,1.81Z"/>
    </g>
  </g>
  <g>
    <g>
      <path class="st0" d="M670.85,414.33c.12.89.13,2.3-.53,2.98-1.15,1.18-5.33,1.5-6.57.39-.52-.46-.64-1.39-.28-1.98.54-.88,1.67-1.22,2.26-1.96.79-1.01.55-2.86,2.02-3.4,1.9-.69,2.91,2.62,3.1,3.97Z"/>
      <path class="st0" d="M674.58,422.8c-.18.4-.49.72-.92.81-1.89.38-4.24-3.07-2.92-4.44,1.42-1.47,4.66,1.82,3.84,3.63Z"/>
      <path class="st0" d="M677.8,418.4c-.89,2.07-5.2.5-5.16-1.41.03-1.51,2.2-1.54,3.25-1.11.84.35,2.37,1.46,1.91,2.52Z"/>
      <path class="st0" d="M675.82,413.12c-.84,1.84-5.02,1.02-4.65-.89.44-2.29,5.6-1.18,4.65.89Z"/>
      <path class="st0" d="M669.27,423.35c-.28.38-.77.58-1.23.48-2.03-.43-2.3-4.67-.39-4.66,1.66.01,2.55,2.93,1.63,4.18Z"/>
    </g>
    <g>
      <path class="st0" d="M689.38,403.35c.52.73,1.18,1.98.91,2.88-.47,1.58-4.02,3.8-5.64,3.39-.67-.17-1.21-.93-1.17-1.63.07-1.03.91-1.85,1.09-2.78.23-1.26-.84-2.79.22-3.95,1.36-1.49,3.79.97,4.59,2.08Z"/>
      <path class="st0" d="M696.61,409.12c.02.43-.1.86-.44,1.14-1.49,1.21-5.18-.75-4.64-2.58.57-1.96,4.97-.55,5.08,1.44Z"/>
      <path class="st0" d="M697.42,403.72c.17,2.24-4.38,2.86-5.23,1.14-.68-1.35,1.23-2.38,2.37-2.49.9-.08,2.78.19,2.86,1.34Z"/>
      <path class="st0" d="M693.22,399.96c.11,2.02-3.97,3.24-4.53,1.37-.67-2.23,4.41-3.64,4.53-1.37Z"/>
      <path class="st0" d="M692.17,412.06c-.07.47-.41.87-.87.99-2,.56-4.21-3.07-2.51-3.94,1.48-.76,3.62,1.41,3.38,2.95Z"/>
    </g>
  </g>
  <g>
    <g>
      <path class="st0" d="M698.14,427.44c-.15.88-.56,2.24-1.39,2.69-1.45.79-5.53-.14-6.39-1.57-.36-.6-.2-1.52.32-1.98.78-.68,1.95-.67,2.73-1.21,1.06-.73,1.37-2.57,2.94-2.65,2.02-.1,2.01,3.36,1.79,4.71Z"/>
      <path class="st0" d="M699.21,436.63c-.29.33-.68.54-1.12.5-1.91-.19-3.14-4.18-1.48-5.1,1.79-.99,3.91,3.12,2.59,4.6Z"/>
      <path class="st0" d="M703.58,433.37c-1.46,1.71-5.12-1.06-4.52-2.87.48-1.44,2.55-.82,3.43-.1.7.58,1.83,2.09,1.08,2.97Z"/>
      <path class="st0" d="M703.26,427.74c-1.35,1.51-5.1-.5-4.18-2.22,1.09-2.06,5.69.52,4.18,2.22Z"/>
      <path class="st0" d="M693.98,435.59c-.38.28-.9.32-1.32.09-1.81-1.01-.82-5.14,1-4.56,1.59.5,1.57,3.55.32,4.47Z"/>
    </g>
    <g>
      <path class="st0" d="M719.09,422.4c.28.85.55,2.24.02,3.03-.91,1.37-4.96,2.44-6.39,1.58-.59-.36-.88-1.25-.63-1.9.37-.97,1.42-1.5,1.86-2.34.6-1.14.02-2.91,1.37-3.71,1.74-1.02,3.34,2.04,3.77,3.34Z"/>
      <path class="st0" d="M724.3,430.05c-.1.42-.35.79-.76.96-1.78.72-4.72-2.25-3.68-3.83,1.12-1.7,4.91.94,4.43,2.87Z"/>
      <path class="st0" d="M726.66,425.13c-.5,2.19-5.02,1.44-5.34-.45-.25-1.49,1.88-1.91,2.99-1.68.88.19,2.6,1,2.34,2.13Z"/>
      <path class="st0" d="M723.76,420.3c-.49,1.96-4.75,1.92-4.74-.03.01-2.33,5.29-2.18,4.74.03Z"/>
      <path class="st0" d="M719.18,431.56c-.21.43-.65.71-1.13.69-2.07-.05-3.11-4.17-1.23-4.51,1.64-.29,3.04,2.42,2.36,3.81Z"/>
    </g>
  </g>
  <g>
    <g>
      <path class="st0" d="M720.38,447.99c-.4.8-1.19,1.98-2.11,2.17-1.61.33-5.25-1.76-5.65-3.37-.17-.67.25-1.51.89-1.8.94-.43,2.07-.07,2.97-.35,1.22-.39,2.06-2.06,3.58-1.67,1.96.5.94,3.8.33,5.03Z"/>
      <path class="st0" d="M718.7,457.09c-.37.23-.81.32-1.21.15-1.77-.74-1.78-4.92.08-5.31,2-.42,2.83,4.13,1.13,5.16Z"/>
      <path class="st0" d="M723.84,455.26c-1.9,1.21-4.58-2.51-3.48-4.07.88-1.23,2.68-.04,3.31.91.5.76,1.14,2.54.17,3.16Z"/>
      <path class="st0" d="M725.18,449.79c-1.73,1.05-4.73-1.98-3.35-3.35,1.65-1.65,5.29,2.17,3.35,3.35Z"/>
      <path class="st0" d="M714.01,454.56c-.45.16-.96.05-1.29-.3-1.44-1.5.72-5.16,2.29-4.07,1.37.95.46,3.86-1.01,4.37Z"/>
    </g>
    <g>
      <path class="st0" d="M741.88,449.32c.02.89-.13,2.3-.87,2.9-1.28,1.04-5.46.88-6.57-.36-.46-.52-.48-1.45-.05-2,.64-.82,1.8-1.02,2.46-1.69.9-.91.87-2.78,2.4-3.14,1.97-.47,2.59,2.93,2.62,4.3Z"/>
      <path class="st0" d="M744.62,458.16c-.22.37-.57.66-1.01.7-1.92.16-3.86-3.53-2.39-4.74,1.57-1.3,4.42,2.34,3.4,4.05Z"/>
      <path class="st0" d="M748.32,454.15c-1.12,1.95-5.23-.1-4.97-1.99.2-1.5,2.36-1.28,3.36-.73.79.44,2.19,1.72,1.61,2.72Z"/>
      <path class="st0" d="M746.96,448.68c-1.04,1.73-5.1.44-4.52-1.41.7-2.22,5.69-.53,4.52,1.41Z"/>
      <path class="st0" d="M739.29,458.1c-.32.35-.83.48-1.28.33-1.97-.66-1.75-4.9.14-4.67,1.65.2,2.2,3.2,1.14,4.34Z"/>
    </g>
  </g>
  <g>
    <g>
      <path class="st0" d="M735.6,474.17c-.62.65-1.72,1.54-2.66,1.44-1.64-.16-4.49-3.23-4.4-4.89.04-.69.69-1.37,1.38-1.45,1.03-.13,1.99.55,2.94.54,1.28,0,2.58-1.35,3.92-.54,1.72,1.06-.23,3.91-1.17,4.9Z"/>
      <path class="st0" d="M731.3,482.37c-.42.11-.86.07-1.2-.22-1.47-1.24-.24-5.23,1.65-5.05,2.03.19,1.48,4.78-.45,5.26Z"/>
      <path class="st0" d="M736.76,482.13c-2.17.59-3.64-3.75-2.12-4.92,1.2-.92,2.57.76,2.89,1.85.25.87.34,2.76-.78,3.07Z"/>
      <path class="st0" d="M739.65,477.3c-1.96.49-3.93-3.29-2.21-4.19,2.06-1.08,4.41,3.64,2.21,4.19Z"/>
      <path class="st0" d="M727.57,478.56c-.47.02-.93-.24-1.14-.67-.93-1.85,2.21-4.71,3.4-3.21,1.03,1.31-.7,3.82-2.25,3.88Z"/>
    </g>
    <g>
      <path class="st0" d="M755.75,481.8c-.25.86-.81,2.16-1.69,2.51-1.53.62-5.48-.78-6.17-2.29-.29-.63-.03-1.53.55-1.93.85-.59,2.02-.44,2.85-.89,1.13-.6,1.66-2.4,3.22-2.29,2.02.13,1.61,3.57,1.23,4.88Z"/>
      <path class="st0" d="M755.75,491.06c-.32.29-.73.46-1.17.37-1.88-.41-2.64-4.52-.88-5.24,1.89-.77,3.53,3.54,2.05,4.87Z"/>
      <path class="st0" d="M760.47,488.32c-1.64,1.53-4.96-1.64-4.16-3.37.64-1.37,2.63-.53,3.42.3.63.65,1.58,2.29.74,3.08Z"/>
      <path class="st0" d="M760.79,482.69c-1.51,1.35-5.01-1.09-3.9-2.69,1.32-1.92,5.6,1.18,3.9,2.69Z"/>
      <path class="st0" d="M750.67,489.42c-.41.23-.93.22-1.32-.06-1.68-1.21-.23-5.2,1.52-4.42,1.52.68,1.15,3.71-.2,4.48Z"/>
    </g>
  </g>
</svg>